<?xml version="1.0" encoding="UTF-8"?>
<svg width="158px" height="18px" viewBox="0 0 158 18" version="1.1" xmlns="http://www.w3.org/2000/svg" xmlns:xlink="http://www.w3.org/1999/xlink">
  <!-- Generator: Sketch 63.1 (92452) - https://sketch.com -->
  <title>+7-(917)-414-28-91</title>
  <desc>Created with Sketch.</desc>
  <g id="Page-1" stroke="none" stroke-width="1" fill="none" fill-rule="evenodd">
    <path d="M6.372,14 L6.372,10.418 L9.954,10.418 L9.954,8.492 L6.372,8.492 L6.372,4.91 L4.446,4.91 L4.446,8.492 L0.864,8.492 L0.864,10.418 L4.446,10.418 L4.446,14 L6.372,14 Z M15.984,14 C15.996,13.16 16.095,12.254 16.281,11.282 C16.467,10.31 16.731,9.35 17.073,8.402 C17.415,7.454 17.841,6.56 18.351,5.72 C18.861,4.88 19.446,4.172 20.106,3.596 L20.106,1.4 L11.502,1.4 L11.502,3.776 L17.478,3.776 C16.278,5.228 15.309,6.824 14.571,8.564 C13.833,10.304 13.392,12.116 13.248,14 L15.984,14 Z M27.18,10.184 L27.18,7.988 L21.762,7.988 L21.762,10.184 L27.18,10.184 Z M33.57,17.258 C32.886,15.95 32.391,14.606 32.085,13.226 C31.779,11.846 31.626,10.436 31.626,8.996 C31.626,7.58 31.782,6.185 32.094,4.811 C32.406,3.437 32.904,2.114 33.588,0.842 L31.446,0.842 C31.05,1.418 30.705,2.048 30.411,2.732 C30.117,3.416 29.871,4.124 29.673,4.856 C29.475,5.588 29.325,6.323 29.223,7.061 C29.121,7.799 29.07,8.504 29.07,9.176 C29.07,10.592 29.277,11.984 29.691,13.352 C30.105,14.72 30.69,16.022 31.446,17.258 L33.57,17.258 Z M38.142,14.234 C39.042,14.234 39.804,14.039 40.428,13.649 C41.052,13.259 41.562,12.749 41.958,12.119 C42.354,11.489 42.642,10.784 42.822,10.004 C43.002,9.224 43.092,8.444 43.092,7.664 C43.092,6.872 43.02,6.086 42.876,5.306 C42.732,4.526 42.474,3.827 42.102,3.209 C41.73,2.591 41.235,2.093 40.617,1.715 C39.999,1.337 39.21,1.148 38.25,1.148 C37.59,1.148 36.99,1.268 36.45,1.508 C35.91,1.748 35.445,2.075 35.055,2.489 C34.665,2.903 34.365,3.389 34.155,3.947 C33.945,4.505 33.84,5.108 33.84,5.756 C33.84,6.26 33.918,6.758 34.074,7.25 C34.23,7.742 34.476,8.18 34.812,8.564 C35.172,8.96 35.61,9.275 36.126,9.509 C36.642,9.743 37.17,9.86 37.71,9.86 C38.322,9.86 38.862,9.752 39.33,9.536 C39.798,9.32 40.206,8.96 40.554,8.456 L40.59,8.492 C40.566,8.84 40.515,9.236 40.437,9.68 C40.359,10.124 40.23,10.541 40.05,10.931 C39.87,11.321 39.63,11.651 39.33,11.921 C39.03,12.191 38.646,12.326 38.178,12.326 C37.734,12.326 37.362,12.17 37.062,11.858 C36.762,11.546 36.57,11.18 36.486,10.76 L34.056,10.76 C34.128,11.312 34.278,11.804 34.506,12.236 C34.734,12.668 35.028,13.034 35.388,13.334 C35.748,13.634 36.162,13.859 36.63,14.009 C37.098,14.159 37.602,14.234 38.142,14.234 Z M38.322,7.934 C37.998,7.934 37.713,7.865 37.467,7.727 C37.221,7.589 37.02,7.409 36.864,7.187 C36.708,6.965 36.591,6.713 36.513,6.431 C36.435,6.149 36.396,5.858 36.396,5.558 C36.396,5.27 36.438,4.988 36.522,4.712 C36.606,4.436 36.732,4.19 36.9,3.974 C37.068,3.758 37.272,3.584 37.512,3.452 C37.752,3.32 38.022,3.254 38.322,3.254 C38.646,3.254 38.934,3.32 39.186,3.452 C39.438,3.584 39.651,3.761 39.825,3.983 C39.999,4.205 40.131,4.457 40.221,4.739 C40.311,5.021 40.356,5.306 40.356,5.594 C40.356,5.906 40.314,6.203 40.23,6.485 C40.146,6.767 40.02,7.016 39.852,7.232 C39.684,7.448 39.474,7.619 39.222,7.745 C38.97,7.871 38.67,7.934 38.322,7.934 Z M50.526,14 L50.526,1.4 L48.492,1.4 C48.42,1.88 48.27,2.282 48.042,2.606 C47.814,2.93 47.535,3.191 47.205,3.389 C46.875,3.587 46.503,3.725 46.089,3.803 C45.675,3.881 45.246,3.914 44.802,3.902 L44.802,5.828 L47.97,5.828 L47.97,14 L50.526,14 Z M58.662,14 C58.674,13.16 58.773,12.254 58.959,11.282 C59.145,10.31 59.409,9.35 59.751,8.402 C60.093,7.454 60.519,6.56 61.029,5.72 C61.539,4.88 62.124,4.172 62.784,3.596 L62.784,1.4 L54.18,1.4 L54.18,3.776 L60.156,3.776 C58.956,5.228 57.987,6.824 57.249,8.564 C56.511,10.304 56.07,12.116 55.926,14 L58.662,14 Z M65.502,17.258 C65.898,16.694 66.246,16.07 66.546,15.386 C66.846,14.702 67.095,13.997 67.293,13.271 C67.491,12.545 67.638,11.813 67.734,11.075 C67.83,10.337 67.878,9.632 67.878,8.96 C67.878,7.544 67.671,6.146 67.257,4.766 C66.843,3.386 66.258,2.078 65.502,0.842 L63.396,0.842 C64.056,2.15 64.542,3.5 64.854,4.892 C65.166,6.284 65.322,7.7 65.322,9.14 C65.322,10.556 65.163,11.945 64.845,13.307 C64.527,14.669 64.038,15.986 63.378,17.258 L65.502,17.258 Z M75.186,10.184 L75.186,7.988 L69.768,7.988 L69.768,10.184 L75.186,10.184 Z M84.186,14 L84.186,11.084 L85.86,11.084 L85.86,8.978 L84.186,8.978 L84.186,1.4 L81.9,1.4 L76.428,8.744 L76.428,11.084 L81.756,11.084 L81.756,14 L84.186,14 Z M81.756,8.978 L78.444,8.978 L81.702,4.604 L81.756,4.604 L81.756,8.978 Z M93.204,14 L93.204,1.4 L91.17,1.4 C91.098,1.88 90.948,2.282 90.72,2.606 C90.492,2.93 90.213,3.191 89.883,3.389 C89.553,3.587 89.181,3.725 88.767,3.803 C88.353,3.881 87.924,3.914 87.48,3.902 L87.48,5.828 L90.648,5.828 L90.648,14 L93.204,14 Z M104.202,14 L104.202,11.084 L105.876,11.084 L105.876,8.978 L104.202,8.978 L104.202,1.4 L101.916,1.4 L96.444,8.744 L96.444,11.084 L101.772,11.084 L101.772,14 L104.202,14 Z M101.772,8.978 L98.46,8.978 L101.718,4.604 L101.772,4.604 L101.772,8.978 Z M112.536,10.184 L112.536,7.988 L107.118,7.988 L107.118,10.184 L112.536,10.184 Z M123.12,14 L123.12,11.804 L117.162,11.804 C117.474,11.372 117.834,10.994 118.242,10.67 C118.65,10.346 119.07,10.043 119.502,9.761 C119.934,9.479 120.363,9.194 120.789,8.906 C121.215,8.618 121.596,8.297 121.932,7.943 C122.268,7.589 122.538,7.184 122.742,6.728 C122.946,6.272 123.048,5.726 123.048,5.09 C123.048,4.478 122.931,3.926 122.697,3.434 C122.463,2.942 122.148,2.528 121.752,2.192 C121.356,1.856 120.897,1.598 120.375,1.418 C119.853,1.238 119.304,1.148 118.728,1.148 C117.972,1.148 117.303,1.277 116.721,1.535 C116.139,1.793 115.656,2.153 115.272,2.615 C114.888,3.077 114.6,3.617 114.408,4.235 C114.216,4.853 114.132,5.522 114.156,6.242 L116.604,6.242 C116.604,5.906 116.637,5.567 116.703,5.225 C116.769,4.883 116.88,4.571 117.036,4.289 C117.192,4.007 117.399,3.779 117.657,3.605 C117.915,3.431 118.23,3.344 118.602,3.344 C119.154,3.344 119.607,3.515 119.961,3.857 C120.315,4.199 120.492,4.676 120.492,5.288 C120.492,5.672 120.405,6.014 120.231,6.314 C120.057,6.614 119.841,6.884 119.583,7.124 C119.325,7.364 119.04,7.583 118.728,7.781 C118.416,7.979 118.122,8.174 117.846,8.366 C117.306,8.738 116.793,9.104 116.307,9.464 C115.821,9.824 115.398,10.217 115.038,10.643 C114.678,11.069 114.393,11.552 114.183,12.092 C113.973,12.632 113.868,13.268 113.868,14 L123.12,14 Z M128.538,14.234 C129.126,14.234 129.702,14.153 130.266,13.991 C130.83,13.829 131.334,13.586 131.778,13.262 C132.222,12.938 132.579,12.53 132.849,12.038 C133.119,11.546 133.254,10.964 133.254,10.292 C133.254,9.5 133.05,8.831 132.642,8.285 C132.234,7.739 131.652,7.382 130.896,7.214 L130.896,7.178 C131.508,6.974 131.967,6.638 132.273,6.17 C132.579,5.702 132.732,5.156 132.732,4.532 C132.732,4.22 132.66,3.869 132.516,3.479 C132.372,3.089 132.135,2.723 131.805,2.381 C131.475,2.039 131.04,1.748 130.5,1.508 C129.96,1.268 129.3,1.148 128.52,1.148 C128.004,1.148 127.494,1.22 126.99,1.364 C126.486,1.508 126.033,1.724 125.631,2.012 C125.229,2.3 124.902,2.66 124.65,3.092 C124.398,3.524 124.272,4.022 124.272,4.586 C124.272,5.21 124.428,5.756 124.74,6.224 C125.052,6.692 125.514,7.01 126.126,7.178 L126.126,7.214 C125.37,7.394 124.785,7.754 124.371,8.294 C123.957,8.834 123.75,9.506 123.75,10.31 C123.75,10.994 123.885,11.582 124.155,12.074 C124.425,12.566 124.785,12.974 125.235,13.298 C125.685,13.622 126.195,13.859 126.765,14.009 C127.335,14.159 127.926,14.234 128.538,14.234 Z M128.52,6.476 C128.004,6.476 127.554,6.335 127.17,6.053 C126.786,5.771 126.594,5.36 126.594,4.82 C126.594,4.532 126.645,4.28 126.747,4.064 C126.849,3.848 126.99,3.668 127.17,3.524 C127.35,3.38 127.557,3.269 127.791,3.191 C128.025,3.113 128.268,3.074 128.52,3.074 C128.916,3.074 129.237,3.134 129.483,3.254 C129.729,3.374 129.921,3.524 130.059,3.704 C130.197,3.884 130.29,4.073 130.338,4.271 C130.386,4.469 130.41,4.652 130.41,4.82 C130.41,5.36 130.23,5.771 129.87,6.053 C129.51,6.335 129.06,6.476 128.52,6.476 Z M128.538,12.326 C128.238,12.326 127.95,12.275 127.674,12.173 C127.398,12.071 127.161,11.927 126.963,11.741 C126.765,11.555 126.606,11.33 126.486,11.066 C126.366,10.802 126.306,10.508 126.306,10.184 C126.306,9.536 126.522,9.041 126.954,8.699 C127.386,8.357 127.914,8.186 128.538,8.186 C128.838,8.186 129.117,8.234 129.375,8.33 C129.633,8.426 129.861,8.564 130.059,8.744 C130.257,8.924 130.413,9.137 130.527,9.383 C130.641,9.629 130.698,9.902 130.698,10.202 C130.698,10.514 130.644,10.802 130.536,11.066 C130.428,11.33 130.275,11.555 130.077,11.741 C129.879,11.927 129.651,12.071 129.393,12.173 C129.135,12.275 128.85,12.326 128.538,12.326 Z M139.878,10.184 L139.878,7.988 L134.46,7.988 L134.46,10.184 L139.878,10.184 Z M145.512,14.234 C146.412,14.234 147.174,14.039 147.798,13.649 C148.422,13.259 148.932,12.749 149.328,12.119 C149.724,11.489 150.012,10.784 150.192,10.004 C150.372,9.224 150.462,8.444 150.462,7.664 C150.462,6.872 150.39,6.086 150.246,5.306 C150.102,4.526 149.844,3.827 149.472,3.209 C149.1,2.591 148.605,2.093 147.987,1.715 C147.369,1.337 146.58,1.148 145.62,1.148 C144.96,1.148 144.36,1.268 143.82,1.508 C143.28,1.748 142.815,2.075 142.425,2.489 C142.035,2.903 141.735,3.389 141.525,3.947 C141.315,4.505 141.21,5.108 141.21,5.756 C141.21,6.26 141.288,6.758 141.444,7.25 C141.6,7.742 141.846,8.18 142.182,8.564 C142.542,8.96 142.98,9.275 143.496,9.509 C144.012,9.743 144.54,9.86 145.08,9.86 C145.692,9.86 146.232,9.752 146.7,9.536 C147.168,9.32 147.576,8.96 147.924,8.456 L147.96,8.492 C147.936,8.84 147.885,9.236 147.807,9.68 C147.729,10.124 147.6,10.541 147.42,10.931 C147.24,11.321 147,11.651 146.7,11.921 C146.4,12.191 146.016,12.326 145.548,12.326 C145.104,12.326 144.732,12.17 144.432,11.858 C144.132,11.546 143.94,11.18 143.856,10.76 L141.426,10.76 C141.498,11.312 141.648,11.804 141.876,12.236 C142.104,12.668 142.398,13.034 142.758,13.334 C143.118,13.634 143.532,13.859 144,14.009 C144.468,14.159 144.972,14.234 145.512,14.234 Z M145.692,7.934 C145.368,7.934 145.083,7.865 144.837,7.727 C144.591,7.589 144.39,7.409 144.234,7.187 C144.078,6.965 143.961,6.713 143.883,6.431 C143.805,6.149 143.766,5.858 143.766,5.558 C143.766,5.27 143.808,4.988 143.892,4.712 C143.976,4.436 144.102,4.19 144.27,3.974 C144.438,3.758 144.642,3.584 144.882,3.452 C145.122,3.32 145.392,3.254 145.692,3.254 C146.016,3.254 146.304,3.32 146.556,3.452 C146.808,3.584 147.021,3.761 147.195,3.983 C147.369,4.205 147.501,4.457 147.591,4.739 C147.681,5.021 147.726,5.306 147.726,5.594 C147.726,5.906 147.684,6.203 147.6,6.485 C147.516,6.767 147.39,7.016 147.222,7.232 C147.054,7.448 146.844,7.619 146.592,7.745 C146.34,7.871 146.04,7.934 145.692,7.934 Z M157.896,14 L157.896,1.4 L155.862,1.4 C155.79,1.88 155.64,2.282 155.412,2.606 C155.184,2.93 154.905,3.191 154.575,3.389 C154.245,3.587 153.873,3.725 153.459,3.803 C153.045,3.881 152.616,3.914 152.172,3.902 L152.172,5.828 L155.34,5.828 L155.34,14 L157.896,14 Z" id="+7-(917)-414-28-91" fill="#000000" fill-rule="nonzero"></path>
  </g>
</svg>
