
<svg width="51px" height="51px" viewBox="0 0 51 51" version="1.1" xmlns="http://www.w3.org/2000/svg" xmlns:xlink="http://www.w3.org/1999/xlink">
  <g id="Android" stroke="none" stroke-width="1" fill="none" fill-rule="evenodd">
    <g id="101" transform="translate(-222.000000, -422.000000)">
      <g id="Войти-через-соц.-сети" transform="translate(69.000000, 383.333333)">
        <g id="Group-2" transform="translate(153.000000, 39.000000)">
          <rect id="Rectangle" fill="#4680C2" fill-rule="nonzero" x="0" y="0" width="50.6666667" height="50.6666667" rx="2"></rect>
          <g id="VK_Blue_Logo">
            <path d="M17.7156177,0.318881119 L33.1282051,0.318881119 C47.1944056,0.318881119 50.5249417,3.64941725 50.5249417,17.7156177 L50.5249417,33.1282051 C50.5249417,47.1944056 47.1944056,50.5249417 33.1282051,50.5249417 L17.7156177,50.5249417 C3.64941725,50.5249417 0.318881119,47.1944056 0.318881119,33.1282051 L0.318881119,17.7156177 C0.318881119,3.64941725 3.64941725,0.318881119 17.7156177,0.318881119" id="Path" fill="#4680C2"></path>
            <path d="M41.4191142,17.609324 C41.6671329,16.8298368 41.4191142,16.2629371 40.3207459,16.2629371 L36.6713287,16.2629371 C35.7501166,16.2629371 35.3249417,16.7589744 35.0769231,17.2904429 C35.0769231,17.2904429 33.1990676,21.825641 30.5771562,24.7664336 C29.7268065,25.6167832 29.3370629,25.9002331 28.8764569,25.9002331 C28.6284382,25.9002331 28.3095571,25.6167832 28.3095571,24.837296 L28.3095571,17.5738928 C28.3095571,16.6526807 28.0261072,16.2275058 27.24662,16.2275058 L21.5067599,16.2275058 C20.9398601,16.2275058 20.5855478,16.6526807 20.5855478,17.0778555 C20.5855478,17.9636364 21.8965035,18.1762238 22.0382284,20.6564103 L22.0382284,26.041958 C22.0382284,27.2111888 21.825641,27.4237762 21.365035,27.4237762 C20.1249417,27.4237762 17.1132867,22.8531469 15.3062937,17.6447552 C14.9519814,16.6172494 14.597669,16.2275058 13.6764569,16.2275058 L9.99160839,16.2275058 C8.92867133,16.2275058 8.75151515,16.7235431 8.75151515,17.2550117 C8.75151515,18.211655 9.99160839,23.030303 14.5268065,29.4079254 C17.5384615,33.7659674 21.825641,36.1044289 25.6876457,36.1044289 C28.0261072,36.1044289 28.3095571,35.5729604 28.3095571,34.6871795 L28.3095571,31.3920746 C28.3095571,30.3291375 28.5221445,30.1519814 29.2662005,30.1519814 C29.797669,30.1519814 30.7543124,30.4354312 32.9156177,32.5258741 C35.3958042,35.0060606 35.820979,36.1398601 37.2027972,36.1398601 L40.8522145,36.1398601 C41.9151515,36.1398601 42.4111888,35.6083916 42.1277389,34.5808858 C41.8088578,33.55338 40.6041958,32.0652681 39.0452214,30.2937063 C38.1948718,29.3016317 36.9193473,28.2032634 36.5296037,27.6717949 C35.9981352,26.9631702 36.1398601,26.6797203 36.5296037,26.041958 C36.4941725,26.041958 40.9585082,19.7351981 41.4191142,17.609324" id="Path" fill="#FFFFFF"></path>
          </g>
        </g>
      </g>
    </g>
  </g>
</svg>