
<svg width="51px" height="51px" viewBox="0 0 51 51" version="1.1" xmlns="http://www.w3.org/2000/svg" xmlns:xlink="http://www.w3.org/1999/xlink">
  <g id="Page-1" stroke="none" stroke-width="1" fill="none" fill-rule="evenodd">
    <g id="iconmonstr-whatsapp-3" fill="#59EB71" fill-rule="nonzero">
      <path d="M25.5765,11.345375 C17.852125,11.345375 11.570625,17.626875 11.566375,25.347 C11.56425,28.498375 12.488625,30.85925 14.039875,33.3285 L12.624625,38.4965 L17.924375,37.10675 C20.298,38.515625 22.565375,39.361375 25.56375,39.361375 C33.28175,39.361375 39.569625,33.079875 39.57175,25.357625 C39.578125,17.6205 33.32,11.3475 25.5765,11.345375 Z M33.813,31.36925 C33.462375,32.353125 31.779375,33.249875 30.971875,33.371 C30.24725,33.479375 29.32925,33.524 28.319875,33.20525 C27.707875,33.011875 26.92375,32.752625 25.92075,32.319125 C21.698375,30.495875 18.940125,26.24375 18.72975,25.96325 C18.519375,25.68275 17.010625,23.681 17.010625,21.609125 C17.010625,19.53725 18.098625,18.519375 18.48325,18.0965 C18.87,17.6715 19.32475,17.56525 19.60525,17.56525 L20.41275,17.580125 C20.672,17.592875 21.018375,17.482375 21.3605,18.302625 C21.711125,19.14625 22.552625,21.218125 22.658875,21.4285 C22.763,21.638875 22.83525,21.885375 22.692875,22.165875 C22.552625,22.446375 22.4825,22.62275 22.272125,22.867125 L21.641,23.6045 C21.430625,23.814875 21.21175,24.04225 21.456125,24.463 C21.702625,24.88375 22.54625,26.262875 23.797875,27.3785 C25.4065,28.812875 26.76225,29.257 27.183,29.467375 C27.60375,29.67775 27.85025,29.64375 28.094625,29.361125 C28.341125,29.080625 29.1465,28.132875 29.427,27.71 C29.7075,27.287125 29.988,27.359375 30.37475,27.499625 C30.7615,27.639875 32.83125,28.65775 33.252,28.87025 C33.67275,29.080625 33.95325,29.186875 34.0595,29.361125 C34.163625,29.54175 34.163625,30.385375 33.813,31.36925 L33.813,31.36925 Z M40.375,0 L10.625,0 C4.757875,0 0,4.757875 0,10.625 L0,40.375 C0,46.242125 4.757875,51 10.625,51 L40.375,51 C46.24425,51 51,46.242125 51,40.375 L51,10.625 C51,4.757875 46.24425,0 40.375,0 Z M25.570125,42.20675 C22.75025,42.20675 19.972875,41.499125 17.512125,40.156125 L8.58075,42.5 L10.971375,33.7705 C9.496625,31.21625 8.721,28.31775 8.723125,25.347 C8.727375,16.0565 16.283875,8.5 25.570125,8.5 C30.07725,8.502125 34.308125,10.257375 37.48925,13.440625 C40.670375,16.623875 42.421375,20.859 42.41925,25.35975 C42.415,34.65025 34.856375,42.20675 25.570125,42.20675 Z" id="Shape"></path>
    </g>
  </g>
</svg>